# AST/ASF file generated using VICON BodyLanguage
# -----------------------------------------------
:version 1.10
:name VICON
:units
  mass 1.0
  length 0.45
  angle deg
:documentation
   .ast/.asf automatically generated from VICON data using
   VICON BodyBuilder and BodyLanguage model FoxedUp or BRILLIANT.MOD
:root
   order TX TY TZ RX RY RZ
   axis XYZ
   position 0 0 0  
   orientation 0 0 0 
:bonedata
  begin
     id 1 
     name lhipjoint
     direction 0.650112 -0.723553 0.232005 
     length 2.45805 
     axis 0 0 0  XYZ
  end
  begin
     id 2 
     name lfemur
     direction 0.34202 -0.939693 0  
     length 7.00073  
     axis 0 0 20  XYZ
    dof rx ry rz
    limits (-160.0 20.0)
           (-70.0 70.0)
           (-60.0 70.0)
  end
  begin
     id 3 
     name ltibia
     direction 0.34202 -0.939693 0   
     length 7.8748   
     axis 0 0 20   XYZ
    dof rx
    limits (-10.0 170.0)
  end
  begin
     id 4 
     name lfoot
     direction 0.0542825 -0.14914 0.987325   
     length 1.75978   
     axis -90 7.62852e-016 20   XYZ
    dof rx rz
    limits (-45.0 90.0)
           (-70.0 20.0)
  end
  begin
     id 5 
     name ltoes
     direction 1.53509e-011 -4.21906e-011 1   
     length 0.893912   
     axis -90 7.62852e-016 20   XYZ
    dof rx
    limits (-90.0 20.0)
  end
  begin
     id 6 
     name rhipjoint
     direction -0.637897 -0.733345 0.235145   
     length 2.42522  
     axis 0 0 0  XYZ 
  end
  begin
     id 7 
     name rfemur
     direction -0.34202 -0.939693 0   
     length 7.02549   
     axis 0 0 -20   XYZ
    dof rx ry rz
    limits (-160.0 20.0)
           (-70.0 70.0)
           (-70.0 60.0)
  end
  begin
     id 8 
     name rtibia
     direction -0.34202 -0.939693 0   
     length 7.71512   
     axis 0 0 -20   XYZ
    dof rx
    limits (-10.0 170.0)
 end
 begin
     id 9 
     name rfoot
     direction -0.0822618 -0.226012 0.970645   
     length 1.90014  
     axis -90 -7.62852e-016 -20   XYZ
    dof rx rz
    limits (-45.0 90.0)
           (-20.0 70.0)
  end
  begin
     id 10 
     name rtoes
     direction -1.53542e-011 -4.21872e-011 1   
     length 0.957341   
     axis -90 -7.62852e-016 -20   XYZ
    dof rx
    limits (-90.0 20.0)
  end
  begin
     id 11 
     name lowerback
     direction -0.0022947 0.999774 -0.0211557   
     length 1.89909   
     axis 0 0 0   XYZ
    dof rx ry rz
    limits (-20.0 45.0)
           (-30.0 30.0)
           (-30.0 30.0)
  end
  begin
     id 12 
     name upperback
     direction 0.0107737 0.998635 0.0511027   
     length 1.8853   
     axis 0 0 0   XYZ
    dof rx ry rz
    limits (-20.0 45.0)
           (-30.0 30.0)
           (-30.0 30.0)
  end
  begin
     id 13 
     name thorax
     direction 0.011824 0.998136 0.0598754   
     length 1.88911   
     axis 0 0 0   XYZ
    dof rx ry rz
    limits (-20.0 45.0)
           (-30.0 30.0)
           (-30.0 30.0)
  end
  begin
     id 14 
     name lowerneck
     direction -0.0685355 0.990319 0.120714   
     length 1.91222   
     axis 0 0 0   XYZ
    dof rx ry rz
    limits (-20.0 45.0)
           (-30.0 30.0)
           (-30.0 30.0)
  end
  begin
     id 15 
     name upperneck
     direction 0.0886204 0.955665 -0.280805   
     length 1.92526   
     axis 0 0 0   XYZ
    dof rx ry rz
    limits (-20.0 45.0)
           (-30.0 30.0)
           (-30.0 30.0)
  end
  begin
     id 16
     name head
     direction 0.0233423 0.993502 -0.111393  
     length 1.96056  
     axis 0 0 0   XYZ
    dof rx ry rz
    limits (-20.0 45.0)
           (-30.0 30.0)
           (-30.0 30.0)
  end
  begin
     id 17 
     name lclavicle
     direction 0.941873 0.32922 0.0670041  
     length 3.31705  
     axis 0 0 0   XYZ
    dof ry rz
    limits (-20.0 10.0)
           (0.0 20.0)
  end
  begin
     id 18 
     name lhumerus
     direction 1 -4.4898e-011 3.38707e-028   
     length 5.29277   
     axis 180 -30 -90   XYZ
    dof rx ry rz
    limits (-60.0 90.0)
           (-90.0 90.0)
           (-90.0 90.0)
  end
  begin
     id 19
     name lradius
     direction 1 -4.48952e-011 1.63213e-028   
     length 2.85226   
     axis 180 -30 -90   XYZ
    dof rx
    limits (-10.0 170.0)
  end
  begin
     id 20
     name lwrist
     direction 1 -4.49001e-011 1.27856e-027   
     length 1.42613   
     axis -1.61767e-015 90 90   XYZ
    dof ry
    limits (-180.0 0.0)
 end
  begin
     id 21 
     name lhand
     direction 1 -4.48976e-011 2.55931e-027   
     length 0.602097   
     axis -1.63363e-015 90 90   XYZ
    dof rx rz
    limits (-90.0 90.0)
           (-45.0 45.0)
  end
  begin
     id 22 
     name lfingers
     direction 1 -4.48986e-011 5.11684e-027   
     length 0.485426   
     axis -3.26723e-015 90 90   XYZ
    dof rx
    limits (0.0 90.0)
  end
  begin
     id 23
     name lthumb
     direction 0.707107 -6.34915e-011 0.707107   
     length 0.696978   
     axis -90 45 -2.25915e-014   XYZ
    dof rx rz
    limits (-45.0 45.0)
           (-45.0 45.0)
  end
  begin
     id 24 
     name rclavicle
     direction -0.939974 0.327078 0.0973096   
     length 3.10337  
     axis 0 0 0   XYZ 
    dof ry rz
    limits (-10.0 20.0)
           (-20.0 0.0)
  end
  begin
     id 25 
     name rhumerus
     direction -1 -4.48975e-011 1.83745e-027  
     length 5.13304   
     axis 180 30 90   XYZ
    dof rx ry rz
    limits (-90.0 60.0)
           (-90.0 90.0)
           (-90.0 90.0)
  end
  begin
     id 26 
     name rradius
     direction -1 -4.48977e-011 7.1775e-029   
     length 2.74305   
     axis 180 30 90   XYZ
    dof rx
    limits (-10.0 170.0)
  end
  begin
     id 27 
     name rwrist
     direction -1 -4.48977e-011 1.27963e-027   
     length 1.37152   
     axis -1.61767e-015 -90 -90   XYZ
    dof ry
    limits (-180.0 0.0)
  end
  begin
     id 28
     name rhand
     direction -1 -4.4888e-011 2.56782e-027   
     length 0.767976   
     axis -1.63363e-015 -90 -90   XYZ
    dof rx rz
    limits (-90.0 90.0)
           (-45.0 45.0)
  end
  begin
     id 29
     name rfingers
     direction -1 -4.48947e-011 5.12384e-027   
     length 0.619162   
     axis -3.26723e-015 -90 -90   XYZ
    dof rx
    limits (0.0 90.0)
  end
  begin
     id 30
     name rthumb
     direction -0.707107 -6.34857e-011 0.707107   
     length 0.888997   
     axis -90 -45 2.25915e-014   XYZ
    dof rx rz
    limits (-45.0 45.0)
           (-45.0 45.0)
  end
:hierarchy
  begin
    root lhipjoint rhipjoint lowerback
    lhipjoint lfemur
    lfemur ltibia
    ltibia lfoot
    lfoot ltoes
    rhipjoint rfemur
    rfemur rtibia
    rtibia rfoot
    rfoot rtoes
    lowerback upperback
    upperback thorax
    thorax lowerneck lclavicle rclavicle
    lowerneck upperneck
    upperneck head
    lclavicle lhumerus
    lhumerus lradius
    lradius lwrist
    lwrist lhand lthumb
    lhand lfingers
    rclavicle rhumerus
    rhumerus rradius
    rradius rwrist
    rwrist rhand rthumb
    rhand rfingers
  end

#!OML:ASF F:\VICON\USERDATA\INSTALL\rory3\rory3.ASF
:FULLY-SPECIFIED
:DEGREES
202
root -0.0308502 16.321 -1.55751 1.74072 9.30237 4.89368
lowerback 16.1577 2.26691 3.89688
upperback 10.3007 3.56735 6.82029
thorax 1.7472 1.79699 4.50557
lowerneck -10.5552 -14.3668 -15.0448
upperneck 5.36274 -19.8434 23.8844
head 7.52327 -8.81345 7.7433
rclavicle -4.29375e-014 -3.18055e-014
rhumerus 19.4175 34.9951 -35.4428
rradius 58.2014
rwrist 5.56707
rhand -3.45031 15.726
rfingers 7.12502
rthumb 22.2817 -13.0094
lclavicle -4.29375e-014 -3.18055e-014
lhumerus 35.3711 -48.6851 -5.80339
lradius 54.7025
lwrist 25.8423
lhand 6.72518 27.0408
lfingers 7.12502
lthumb 32.0141 54.2439
rfemur -24.0907 -0.983772 12.7133
rtibia 50.7982
rfoot -26.2292 -9.33117
rtoes -22.2257
lfemur -25.5614 -5.31046 -22.2374
ltibia 45.5491
lfoot -19.8038 -7.06026
ltoes -16.2268
203
root -0.0321112 16.3082 -1.54984 1.62335 9.57395 5.07747
lowerback 16.1061 2.22174 4.0616
upperback 10.2962 3.5292 6.9614
thorax 1.77471 1.78264 4.57232
lowerneck -10.5947 -14.4016 -15.0543
upperneck 5.3653 -19.8907 23.9257
head 7.54746 -8.82885 7.747
rclavicle -3.02153e-014 6.99722e-014
rhumerus 18.7946 35.0885 -36.1449
rradius 58.159
rwrist 5.59872
rhand -3.53935 15.7343
rfingers 7.12502
rthumb 22.1963 -13.0113
lclavicle -3.02153e-014 6.99722e-014
lhumerus 35.5611 -48.6857 -6.56148
lradius 54.6766
lwrist 25.9224
lhand 6.41387 27.0368
lfingers 7.12502
lthumb 31.7176 54.299
rfemur -23.9456 -1.22497 12.5079
rtibia 51.0463
rfoot -26.3738 -9.40431
rtoes -22.2195
lfemur -25.4686 -5.44789 -22.4596
ltibia 45.6904
lfoot -19.8994 -7.09769
ltoes -16.3846
204
root -0.0328773 16.2987 -1.54333 1.44114 9.83458 5.21133
lowerback 16.1207 2.12996 4.19287
upperback 10.2783 3.43251 7.12657
thorax 1.75288 1.7364 4.68927
lowerneck -10.5977 -14.3962 -15.0639
upperneck 5.41091 -19.8811 23.8814
head 7.55521 -8.82262 7.73576
rclavicle 3.18055e-015 4.13472e-014
rhumerus 18.3129 35.3316 -36.7246
rradius 58.219
rwrist 5.69901
rhand -3.40105 15.6805
rfingers 7.12502
rthumb 22.329 -13.0493
lclavicle 3.18055e-015 4.13472e-014
lhumerus 35.4578 -48.6957 -6.97898
lradius 54.6776
lwrist 25.7769
lhand 6.30921 26.8575
lfingers 7.12502
lthumb 31.6179 54.1393
rfemur -23.7253 -1.48258 12.3517
rtibia 51.2634
rfoot -26.5048 -9.40479
rtoes -22.1418
lfemur -25.2975 -5.55148 -22.6359
ltibia 45.8143
lfoot -20.0679 -7.0493
ltoes -16.9716
205
root -0.035006 16.2879 -1.54068 1.29291 10.0186 5.3397
lowerback 16.1657 2.10577 4.29557
upperback 10.2351 3.42463 7.2834
thorax 1.68158 1.73317 4.79796
lowerneck -10.5798 -14.4257 -15.0391
upperneck 5.47034 -19.931 23.8439
head 7.57292 -8.8437 7.71087
rclavicle -4.13472e-014 -2.54444e-014
rhumerus 17.7492 35.5953 -37.1989
rradius 58.4133
rwrist 5.76737
rhand -3.34203 15.5547
rfingers 7.12502
rthumb 22.3857 -13.1682
lclavicle -4.13472e-014 -2.54444e-014
lhumerus 35.6223 -48.6221 -7.49856
lradius 54.7831
lwrist 25.8191
lhand 6.38541 26.9718
lfingers 7.12502
lthumb 31.6905 54.2394
rfemur -23.5834 -1.61318 12.212
rtibia 51.4557
rfoot -26.6589 -9.39471
rtoes -22.008
lfemur -25.1699 -5.62736 -22.7875
ltibia 45.9161
lfoot -20.0624 -7.2274
ltoes -16.5315
206
root -0.038815 16.2778 -1.53656 1.18988 10.1039 5.42344
lowerback 16.1239 2.10469 4.29076
upperback 10.2381 3.42258 7.47966
thorax 1.69658 1.72715 5.01452
lowerneck -10.7471 -14.4415 -15.1643
upperneck 5.62862 -19.9574 23.9083
head 7.68029 -8.83429 7.73824
rclavicle 4.29375e-014 9.54166e-015
rhumerus 17.5626 35.938 -37.4336
rradius 58.2683
rwrist 5.84778
rhand -3.48459 15.6064
rfingers 7.12502
rthumb 22.2488 -13.1329
lclavicle 4.29375e-014 9.54166e-015
lhumerus 35.5249 -48.372 -7.67867
lradius 54.8395
lwrist 25.8851
lhand 6.69066 27.01
lfingers 7.12502
lthumb 31.9812 54.2197
rfemur -23.5224 -1.63225 12.1371
rtibia 51.6237
rfoot -26.7536 -9.45498
rtoes -21.8597
lfemur -25.0926 -5.6078 -22.8772
ltibia 46.0047
lfoot -19.9635 -7.54038
ltoes -15.4245
207
root -0.0396601 16.2738 -1.52996 1.06881 10.1979 5.48257
lowerback 16.0554 2.08115 4.41241
upperback 10.2332 3.40433 7.62484
thorax 1.72874 1.72007 5.1082
lowerneck -10.7778 -14.4478 -15.4544
upperneck 5.73741 -19.9784 24.1371
head 7.78813 -8.82998 7.85631
rclavicle -1.27222e-014 -9.54166e-015
rhumerus 17.3996 36.4669 -37.5665
rradius 58.0007
rwrist 5.76521
rhand -3.9092 15.4529
rfingers 7.12502
rthumb 21.8412 -13.3345
lclavicle -1.27222e-014 -9.54166e-015
lhumerus 35.4594 -48.0724 -7.79387
lradius 54.8667
lwrist 25.9638
lhand 7.15256 27.0516
lfingers 7.12502
lthumb 32.4209 54.1722
rfemur -23.3803 -1.67307 12.077
rtibia 51.7386
rfoot -26.8161 -9.53528
rtoes -21.8737
lfemur -24.9715 -5.62326 -22.9479
ltibia 46.0748
lfoot -19.8341 -7.86419
ltoes -13.6157
208
root -0.0419065 16.2706 -1.52428 0.982036 10.2358 5.64237
lowerback 15.9945 2.08416 4.42712
upperback 10.1977 3.40907 7.69882
thorax 1.71911 1.72143 5.17982
lowerneck -10.7462 -14.4322 -15.6303
upperneck 5.84479 -19.984 24.3188
head 7.86286 -8.82267 7.94845
rclavicle -4.6118e-014 0
rhumerus 17.1548 37.0664 -37.7822
rradius 57.8078
rwrist 5.60687
rhand -4.14776 15.2022
rfingers 7.12502
rthumb 21.6121 -13.6118
lclavicle -4.6118e-014 0
lhumerus 35.5861 -47.8815 -8.07869
lradius 54.8987
lwrist 25.9676
lhand 7.19739 27.0526
lfingers 7.12502
lthumb 32.4636 54.1645
rfemur -23.2576 -1.67863 11.9079
rtibia 51.8323
rfoot -26.9432 -9.52289
rtoes -21.6262
lfemur -24.8371 -5.59922 -23.1249
ltibia 46.0989
lfoot -19.8073 -8.06085
ltoes -12.8912
209
root -0.0450894 16.266 -1.52192 0.876862 10.2986 5.63342
lowerback 15.9753 2.07052 4.57925
upperback 10.1613 3.41332 7.80154
thorax 1.69411 1.72767 5.20382
lowerneck -10.78 -14.4305 -15.5319
upperneck 5.86728 -19.9855 24.2609
head 7.85749 -8.81901 7.91145
rclavicle -2.70347e-014 -1.27222e-014
rhumerus 16.7237 37.3703 -38.2346
rradius 57.7817
rwrist 5.65826
rhand -3.91861 15.3619
rfingers 7.12502
rthumb 21.8321 -13.4266
lclavicle -2.70347e-014 -1.27222e-014
lhumerus 35.9611 -47.6956 -8.55412
lradius 54.9145
lwrist 26.032
lhand 6.94389 27.1175
lfingers 7.12502
lthumb 32.2223 54.2786
rfemur -23.1372 -1.6926 11.9259
rtibia 51.8755
rfoot -27.0055 -9.51806
rtoes -21.3569
lfemur -24.7289 -5.57964 -23.1128
ltibia 46.0828
lfoot -19.8834 -8.11194
ltoes -13.6362
210
root -0.0479007 16.2653 -1.517 0.734493 10.3802 5.73104
lowerback 15.93 2.0335 4.59643
upperback 10.1881 3.36283 7.88876
thorax 1.74696 1.70151 5.29927
lowerneck -10.8083 -14.4132 -15.4944
upperneck 5.85584 -19.9521 24.2133
head 7.84113 -8.80258 7.89456
rclavicle -3.02153e-014 -1.08139e-013
rhumerus 16.4545 37.6725 -38.5583
rradius 57.7643
rwrist 5.76261
rhand -3.70249 15.4939
rfingers 7.12502
rthumb 22.0396 -13.2702
lclavicle -3.02153e-014 -1.08139e-013
lhumerus 36.1461 -47.4097 -8.74776
lradius 54.9123
lwrist 26.0123
lhand 6.76066 26.8973
lfingers 7.12502
lthumb 32.0478 54.0937
rfemur -22.9217 -1.76871 11.819
rtibia 51.8813
rfoot -27.0859 -9.49011
rtoes -21.4249
lfemur -24.5071 -5.61527 -23.2306
ltibia 45.9921
lfoot -19.9149 -8.0479
ltoes -14.1381
211
root -0.0504873 16.2663 -1.50996 0.60066 10.4371 5.84059
lowerback 15.8443 1.97033 4.55056
upperback 10.1944 3.26808 7.97887
thorax 1.7977 1.65005 5.44041
lowerneck -10.7705 -14.3503 -15.5935
upperneck 5.8952 -19.8553 24.1784
head 7.83239 -8.76173 7.92081
rclavicle -2.8625e-014 -3.81667e-014
rhumerus 16.3574 38.2861 -38.6771
rradius 57.6785
rwrist 5.68089
rhand -3.846 15.3682
rfingers 7.12502
rthumb 21.9018 -13.4122
lclavicle -2.8625e-014 -3.81667e-014
lhumerus 36.1046 -47.1727 -8.65946
lradius 54.8691
lwrist 25.9021
lhand 6.65008 26.7413
lfingers 7.12502
lthumb 31.9426 53.9587
rfemur -22.695 -1.86394 11.6987
rtibia 51.8406
rfoot -27.1184 -9.50817
rtoes -21.804
lfemur -24.275 -5.59208 -23.3644
ltibia 45.8683
lfoot -19.9635 -8.06094
ltoes -14.5168
212
root -0.0551502 16.272 -1.50482 0.457793 10.4802 5.90199
lowerback 15.8403 1.94592 4.57281
upperback 10.1966 3.23975 8.04301
thorax 1.80242 1.63543 5.50205
lowerneck -10.9531 -14.3635 -15.5955
upperneck 6.11192 -19.8745 24.041
head 7.91817 -8.75362 7.86191
rclavicle 1.90833e-014 2.22639e-014
rhumerus 16.1979 38.7728 -38.8038
rradius 57.545
rwrist 5.61963
rhand -3.96971 15.391
rfingers 7.12502
rthumb 21.7831 -13.4032
lclavicle 1.90833e-014 2.22639e-014
lhumerus 36.4312 -46.8762 -8.81674
lradius 54.8373
lwrist 25.8163
lhand 6.56166 26.7299
lfingers 7.12502
lthumb 31.8584 53.9641
rfemur -22.4383 -1.89467 11.6381
rtibia 51.7489
rfoot -27.1633 -9.50077
rtoes -21.9076
lfemur -24.0062 -5.59237 -23.4302
ltibia 45.704
lfoot -19.9143 -8.1439
ltoes -14.3321
213
root -0.0594653 16.2787 -1.50273 0.368932 10.5386 5.92766
lowerback 15.8321 1.90029 4.66031
upperback 10.1838 3.19133 8.03228
thorax 1.80197 1.61558 5.44792
lowerneck -11.162 -14.3605 -15.402
upperneck 6.27803 -19.8907 23.931
head 7.9754 -8.73822 7.78109
rclavicle 2.38542e-014 6.36111e-015
rhumerus 16.0251 39.2007 -39.0164
rradius 57.5058
rwrist 5.59275
rhand -4.00138 15.481
rfingers 7.12502
rthumb 21.7526 -13.3167
lclavicle 2.38542e-014 6.36111e-015
lhumerus 36.7561 -46.5027 -9.05383
lradius 54.9278
lwrist 25.7601
lhand 6.59974 26.6301
lfingers 7.12502
lthumb 31.8946 53.8571
rfemur -22.2362 -1.96847 11.6225
rtibia 51.6241
rfoot -27.135 -9.50747
rtoes -21.7115
lfemur -23.7934 -5.57402 -23.4561
ltibia 45.535
lfoot -19.8159 -8.17972
ltoes -14.2898
214
root -0.062964 16.2865 -1.49899 0.322262 10.5598 5.98038
lowerback 15.7675 1.83676 4.6743
upperback 10.1243 3.10867 8.0154
thorax 1.77814 1.57508 5.43322
lowerneck -11.0253 -14.3041 -15.3714
upperneck 6.20913 -19.8251 23.9819
head 7.91978 -8.71666 7.81486
rclavicle 1.74931e-014 -4.13472e-014
rhumerus 15.9502 39.9094 -39.0704
rradius 57.5409
rwrist 5.38601
rhand -4.15765 15.456
rfingers 7.12502
rthumb 21.6026 -13.359
lclavicle 1.74931e-014 -4.13472e-014
lhumerus 36.9944 -46.2577 -9.17566
lradius 55.0219
lwrist 25.7446
lhand 6.5344 26.3275
lfingers 7.12502
lthumb 31.8324 53.5669
rfemur -22.0605 -1.97409 11.5757
rtibia 51.4552
rfoot -27.0744 -9.46524
rtoes -21.3849
lfemur -23.6072 -5.57403 -23.5135
ltibia 45.3598
lfoot -19.8011 -8.01401
ltoes -14.8553
215
root -0.066576 16.295 -1.49441 0.282813 10.5711 6.02809
lowerback 15.6866 1.74701 4.59556
upperback 10.0901 2.97755 8.06041
thorax 1.78576 1.50449 5.54685
lowerneck -11.1117 -14.2776 -15.5746
upperneck 6.37514 -19.7855 23.9968
head 8.00353 -8.68858 7.85705
rclavicle -4.45278e-014 -7.63333e-014
rhumerus 16.2229 40.8717 -38.6933
rradius 57.6082
rwrist 5.01718
rhand -4.33834 15.3016
rfingers 7.12502
rthumb 21.429 -13.5332
lclavicle -4.45278e-014 -7.63333e-014
lhumerus 37.0193 -45.9985 -8.97965
lradius 55.1198
lwrist 25.7008
lhand 6.60085 26.2018
lfingers 7.12502
lthumb 31.8957 53.4287
rfemur -21.887 -1.98719 11.5373
rtibia 51.2509
rfoot -26.9859 -9.48092
rtoes -21.7338
lfemur -23.4336 -5.58876 -23.5624
ltibia 45.1781
lfoot -19.7447 -7.90933
ltoes -15.0426
216
root -0.0713387 16.3063 -1.49013 0.235726 10.6108 5.9603
lowerback 15.5745 1.66253 4.62726
upperback 10.0669 2.86302 8.11059
thorax 1.82707 1.44715 5.60268
lowerneck -11.2762 -14.2584 -15.638
upperneck 6.58594 -19.76 23.912
head 8.08951 -8.66117 7.83647
rclavicle -3.33958e-014 -6.99722e-014
rhumerus 16.4412 41.7908 -38.3106
rradius 57.7391
rwrist 4.54996
rhand -4.4469 15.1641
rfingers 7.12502
rthumb 21.3248 -13.6826
lclavicle -3.33958e-014 -6.99722e-014
lhumerus 37.2921 -45.6939 -8.90135
lradius 55.1336
lwrist 25.6879
lhand 6.6769 26.177
lfingers 7.12502
lthumb 31.9681 53.3893
rfemur -21.6929 -2.02704 11.6341
rtibia 51.0067
rfoot -26.8914 -9.48628
rtoes -21.9182
lfemur -23.2716 -5.60425 -23.4702
ltibia 44.9842
lfoot -19.6299 -8.025
ltoes -14.7681
